<svg width="100%" height="100%" viewBox="0 0 189 192" version="1.1" xmlns="http://www.w3.org/2000/svg" xmlns:xlink="http://www.w3.org/1999/xlink" xml:space="preserve" style="fill-rule:evenodd;clip-rule:evenodd;stroke-linejoin:round;stroke-miterlimit:2;"><g id="layer_1"><g><path d="M186.497,75.248c-0.591,-0.594 -1.41,-0.96 -2.314,-0.96c-0.904,-0 -1.724,0.366 -2.316,0.96c-0.592,0.592 -0.958,1.41 -0.958,2.316c0,0.904 0.366,1.722 0.958,2.315c0.592,0.592 1.412,0.958 2.316,0.958c0.904,-0 1.723,-0.366 2.314,-0.958c0.593,-0.593 0.961,-1.411 0.961,-2.315c0,-0.906 -0.368,-1.724 -0.961,-2.316m-2.314,-1.929c1.172,-0 2.233,0.473 3,1.243c0.77,0.768 1.244,1.829 1.244,3.002c0,1.171 -0.474,2.233 -1.244,3.001c-0.767,0.768 -1.828,1.243 -3,1.243c-1.172,-0 -2.233,-0.475 -3.001,-1.243c-0.77,-0.768 -1.244,-1.83 -1.244,-3.001c0,-1.173 0.474,-2.234 1.244,-3.002c0.768,-0.77 1.829,-1.243 3.001,-1.243" style="fill:#030505;fill-rule:nonzero;"/><path d="M183.441,77.144l0.633,-0c0.411,-0 0.668,-0.017 0.77,-0.051c0.103,-0.035 0.182,-0.095 0.24,-0.18c0.057,-0.085 0.087,-0.191 0.087,-0.318c0,-0.143 -0.038,-0.257 -0.115,-0.346c-0.075,-0.087 -0.183,-0.142 -0.323,-0.166c-0.068,-0.009 -0.277,-0.013 -0.623,-0.013l-0.669,-0l0,1.074Zm-0.856,2.447l0,-4.239l1.803,-0c0.452,-0 0.781,0.04 0.987,0.113c0.205,0.077 0.369,0.213 0.492,0.407c0.124,0.195 0.185,0.417 0.185,0.668c0,0.318 -0.094,0.581 -0.281,0.788c-0.186,0.207 -0.466,0.338 -0.839,0.392c0.186,0.109 0.339,0.227 0.46,0.356c0.119,0.129 0.283,0.358 0.486,0.688l0.52,0.827l-1.024,-0l-0.619,-0.923c-0.221,-0.33 -0.372,-0.538 -0.451,-0.622c-0.081,-0.087 -0.167,-0.145 -0.258,-0.178c-0.092,-0.031 -0.234,-0.046 -0.432,-0.046l-0.173,-0l0,1.769l-0.856,-0Z" style="fill:#030505;fill-rule:nonzero;"/><path d="M107.82,57.972c-2.313,13.154 -9.893,24.494 -20.482,31.768c0.212,-0.327 0.416,-0.664 0.608,-1.017c0.853,-1.563 1.388,-3.262 1.71,-5.097c0.32,-1.829 0.428,-3.796 0.428,-5.897l-0.037,-41.623c-0.001,-2.598 0.606,-4.491 1.891,-5.729c1.288,-1.241 3.263,-1.835 6.001,-1.835l0.125,0l0,-0.126l0.005,-1.789l0,-0.125l-0.125,0l-7.986,0.014l-8.339,0l0,6.659c-1.432,-2.58 -3.262,-4.451 -5.393,-5.71c-2.417,-1.431 -5.221,-2.073 -8.272,-2.073c-1.223,0 -2.379,0.098 -3.469,0.284c-5.953,1.016 -9.967,4.66 -12.49,9.373c-2.517,4.703 -3.55,10.473 -3.55,15.76c0,2.219 0.181,4.354 0.512,6.291c1.007,5.893 3.2,10.651 6.487,13.906c3.18,3.151 7.379,4.892 12.51,4.892c3.378,0 5.919,-0.496 8.074,-1.74c2.059,-1.187 3.76,-3.052 5.488,-5.812c-0.011,0.753 -0.011,1.734 -0.013,2.851c-0.003,4.905 -0.009,12.459 -0.9,15.087c-0.81,2.384 -2.26,4.041 -4.011,5.141c-2.135,1.341 -4.721,1.857 -7.151,1.857c-2.334,0 -4.917,-0.814 -6.855,-2.49c-1.612,-1.396 -2.778,-3.389 -2.981,-6.011l-0.009,-0.118l-9.833,0l0.005,0.132c0.181,4.486 2.332,7.461 5.235,9.417c3.699,2.489 8.618,3.315 12.225,3.507c-2.447,0.378 -4.956,0.577 -7.509,0.577c-6.641,0 -12.969,-1.328 -18.74,-3.728c-30.502,0.163 -15.26,36.865 29.929,28.953c27.826,11.702 64.924,11.812 86.586,-0.539c16.669,-9.504 23.722,-27.118 6.965,-35.882c2.905,-16.833 -15.349,-28.186 -30.263,-14.602c-2.435,-13.814 -15.563,-18.543 -26.376,-14.526m-49.895,-5.717c0,5.792 1.178,10.548 3.185,13.876c2.041,3.381 4.939,5.282 8.325,5.282c4.147,0 7.033,-1.992 8.949,-5.097c2.331,-3.783 3.235,-9.219 3.235,-14.743c0,-4.725 -0.296,-10.192 -1.966,-14.47c-1.66,-4.25 -4.681,-7.33 -10.131,-7.33c-3.919,0 -6.579,2.41 -8.348,5.827c-2.52,4.856 -3.249,11.738 -3.249,16.655m1.794,-51.651c19.389,0 36.141,11.299 44.029,27.67c14.134,0.624 27.766,7.604 33.008,22.954c25.085,-10.423 42.813,13.829 38.375,30.678c22.684,14.207 8.603,40.238 -20.815,49.35c-22.618,7.004 -55.324,11.167 -87.791,2.106c-59.049,9.85 -86.114,-42.449 -48.931,-59.17l0,-0.007c-4.27,-7.253 -6.722,-15.709 -6.722,-24.735c0,-26.977 21.87,-48.846 48.847,-48.846" style="fill:#030505;"/><path d="M51.495,171.07c0,-6.764 -3.193,-8.948 -7.31,-8.948c-4.494,-0 -7.183,3.277 -7.183,8.948c0,5.671 3.109,9.115 7.604,9.115c3.696,-0 6.889,-2.31 6.889,-9.115m-8.023,17.937c4.494,-0 7.981,-2.142 7.981,-7.225l0,-2.437c0,-0.966 0.168,-1.722 0.168,-1.722l-0.084,-0c-1.26,2.562 -3.571,4.285 -7.057,4.285c-5.461,-0 -9.326,-4.285 -9.326,-10.838c0,-6.554 3.57,-10.67 9.031,-10.67c5.966,-0 7.31,4.116 7.31,4.116l0.084,-0c0,-0 -0.126,-0.294 -0.126,-0.798l0,-2.814l1.764,-0l0,20.878c0,6.427 -4.62,8.947 -9.619,8.947c-2.311,-0 -4.537,-0.588 -6.596,-1.638l0.841,-1.554c0,-0 2.604,1.47 5.629,1.47" style="fill:#030505;fill-rule:nonzero;"/><path d="M60.397,152.502l1.764,0l-0,24.616c-0,2.941 1.512,3.277 2.479,3.277c0.336,0 0.63,-0.042 0.63,-0.042l-0,1.638c-0,0 -0.378,0.084 -0.756,0.084c-1.219,0 -4.117,-0.462 -4.117,-4.411l-0,-25.162Z" style="fill:#030505;fill-rule:nonzero;"/><path d="M79.592,180.689c4.999,-0 9.031,-4.074 9.031,-9.409c-0,-5.209 -4.032,-9.158 -9.031,-9.158c-4.999,-0 -9.032,3.949 -9.032,9.158c-0,5.335 4.033,9.409 9.032,9.409m-0,-20.289c6.007,-0 10.88,4.747 10.88,10.88c-0,6.259 -4.873,11.132 -10.88,11.132c-6.007,-0 -10.88,-4.873 -10.88,-11.132c-0,-6.133 4.873,-10.88 10.88,-10.88" style="fill:#030505;fill-rule:nonzero;"/><path d="M105.337,180.689c4.117,-0 7.478,-3.402 7.478,-9.283c-0,-5.671 -3.025,-9.284 -7.31,-9.284c-3.864,-0 -7.477,2.73 -7.477,9.326c-0,4.663 2.394,9.241 7.309,9.241m-9.031,-28.187l1.764,-0l-0,10.922c-0,0.966 -0.168,1.723 -0.168,1.723l0.084,-0c-0,-0 1.806,-4.747 7.603,-4.747c5.629,-0 9.074,4.494 9.074,11.006c-0,6.678 -3.907,11.006 -9.41,11.006c-5.293,-0 -7.267,-4.747 -7.267,-4.747l-0.084,-0c-0,-0 0.168,0.755 0.168,1.848l-0,2.395l-1.764,-0l-0,-29.406Z" style="fill:#030505;fill-rule:nonzero;"/><path d="M120.33,160.904l1.764,-0l-0,12.687c-0,3.654 0.462,7.098 5.167,7.098c5.251,-0 8.611,-4.62 8.611,-9.535l-0,-10.25l1.765,-0l-0,21.004l-1.765,-0l-0,-3.697c-0,-0.966 0.168,-1.722 0.168,-1.722l-0.084,-0c-0.713,1.974 -3.612,5.923 -8.695,5.923c-5.167,-0 -6.931,-2.857 -6.931,-8.192l-0,-13.316Z" style="fill:#030505;fill-rule:nonzero;"/><path d="M144.353,178.042c0,0 2.353,2.646 6.511,2.646c2.563,0 4.831,-1.343 4.831,-3.948c0,-5.335 -11.552,-3.823 -11.552,-10.67c0,-3.739 3.15,-5.671 6.721,-5.671c4.285,0 6.218,2.269 6.218,2.269l-1.051,1.428c0,0 -1.722,-1.975 -5.293,-1.975c-2.394,0 -4.747,1.093 -4.747,3.823c0,5.461 11.552,3.823 11.552,10.796c0,3.361 -2.856,5.671 -6.721,5.671c-5.083,0 -7.603,-3.024 -7.603,-3.024l1.134,-1.345Z" style="fill:#030505;fill-rule:nonzero;"/></g></g></svg>